<svg xmlns="http://www.w3.org/2000/svg" version="1.0" width="322.000000pt" height="296.000000pt" viewBox="0 0 322.000000 296.000000" preserveAspectRatio="xMidYMid meet">

<g transform="translate(0.000000,296.000000) scale(0.100000,-0.100000)" fill="#d114cb" stroke="none">
<path d="M1834 2943 c4 -10 45 -116 93 -236 47 -120 84 -220 82 -222 -2 -2 -65 9 -139 24 l-135 27 -150 -51 c-82 -29 -265 -91 -407 -139 l-256 -88 -144 -215 c-78 -119 -146 -220 -149 -225 -4 -5 -69 5 -159 26 -84 20 -154 35 -155 34 -2 -2 -72 -277 -157 -613 -109 -428 -151 -612 -143 -617 15 -9 270 -56 351 -64 35 -4 67 -11 70 -15 3 -5 -22 -41 -55 -81 -40 -48 -56 -75 -48 -79 7 -4 246 -98 531 -208 l519 -202 226 36 c124 19 228 39 232 43 3 4 43 60 89 125 45 64 85 117 89 117 44 1 1044 69 1046 72 1 2 -64 108 -145 237 l-147 234 37 81 c87 190 108 392 64 626 l-14 75 73 75 c39 41 109 113 154 160 l82 85 21 230 c11 127 21 246 23 265 l2 34 -210 97 -210 97 -15 105 c-8 58 -17 108 -20 111 -5 5 -819 56 -895 56 -31 0 -36 -3 -31 -17z m646 -267 c0 -6 -9 -63 -20 -126 -11 -63 -20 -118 -20 -122 0 -7 -99 -42 -104 -37 -5 6 -116 300 -116 307 0 4 58 3 130 -2 81 -6 130 -13 130 -20z m295 -218 c47 -23 85 -46 85 -50 0 -5 -141 -236 -157 -257 -5 -7 -75 33 -80 46 -2 6 9 75 26 153 17 77 31 143 31 145 0 9 9 5 95 -37z m-977 -250 c50 -7 92 -15 92 -18 -1 -3 -33 -27 -72 -55 -176 -124 -412 -351 -584 -561 -100 -123 -204 -266 -204 -282 0 -6 23 -15 51 -21 l51 -11 137 118 c305 264 555 450 832 618 77 46 281 154 292 154 2 0 -11 -74 -28 -164 -28 -144 -30 -167 -18 -190 30 -58 83 -236 92 -316 24 -189 -33 -387 -160 -557 l-38 -51 80 -119 c44 -65 76 -119 72 -120 -5 -1 -179 -23 -387 -48 l-380 -46 -125 -119 c-70 -65 -135 -127 -145 -139 -11 -11 -24 -21 -29 -21 -15 0 -567 214 -567 220 0 3 39 30 88 60 l87 55 155 -3 c302 -6 479 52 694 227 210 170 337 448 296 646 -11 56 -44 135 -55 135 -3 0 -53 -30 -112 -67 -234 -147 -665 -462 -845 -617 -84 -73 -88 -75 -160 -86 -163 -24 -599 -22 -624 3 -6 5 159 567 166 567 3 0 36 -53 74 -117 49 -84 71 -112 77 -102 5 8 118 203 251 434 l243 420 290 92 c160 50 297 92 305 92 8 1 57 -4 108 -11z" fill="#d114cb"/>
</g>
</svg>